<svg width="256" height="256" viewBox="0 0 256 256" fill="none" xmlns="http://www.w3.org/2000/svg">
  <defs>
    <linearGradient id="bg" x1="32" y1="20" x2="220" y2="236" gradientUnits="userSpaceOnUse">
      <stop offset="0" stop-color="#203247"/>
      <stop offset="0.55" stop-color="#121A26"/>
      <stop offset="1" stop-color="#0C1118"/>
    </linearGradient>
    <linearGradient id="metal" x1="128" y1="34" x2="128" y2="122" gradientUnits="userSpaceOnUse">
      <stop offset="0" stop-color="#EEF4FF"/>
      <stop offset="0.45" stop-color="#BAC8DB"/>
      <stop offset="1" stop-color="#75849A"/>
    </linearGradient>
    <linearGradient id="lock" x1="64" y1="84" x2="192" y2="212" gradientUnits="userSpaceOnUse">
      <stop offset="0" stop-color="#53F0C6"/>
      <stop offset="0.5" stop-color="#31C69F"/>
      <stop offset="1" stop-color="#1B7F72"/>
    </linearGradient>
    <radialGradient id="glow" cx="0" cy="0" r="1" gradientUnits="userSpaceOnUse" gradientTransform="translate(128 140) rotate(90) scale(88 88)">
      <stop offset="0" stop-color="#9AFFF0" stop-opacity="0.5"/>
      <stop offset="1" stop-color="#9AFFF0" stop-opacity="0"/>
    </radialGradient>
    <filter id="shadow" x="14" y="12" width="228" height="234" filterUnits="userSpaceOnUse" color-interpolation-filters="sRGB">
      <feDropShadow dx="0" dy="12" stdDeviation="12" flood-color="#000000" flood-opacity="0.32"/>
    </filter>
  </defs>

  <rect x="16" y="16" width="224" height="224" rx="56" fill="url(#bg)"/>
  <rect x="24" y="24" width="208" height="208" rx="48" stroke="#31445C" stroke-width="2"/>

  <g filter="url(#shadow)">
    <path d="M86 94V76C86 52 103 34 128 34C153 34 170 52 170 76V94" stroke="url(#metal)" stroke-width="18" stroke-linecap="round"/>
    <path d="M70 94H186C198.15 94 208 103.85 208 116V168C208 188.99 190.99 206 170 206H86C65.01 206 48 188.99 48 168V116C48 103.85 57.85 94 70 94Z" fill="url(#lock)"/>
    <path d="M70 94H186C198.15 94 208 103.85 208 116V126C194 119 177 115 159 115H97C79 115 62 119 48 126V116C48 103.85 57.85 94 70 94Z" fill="#7BFFE0" fill-opacity="0.22"/>
    <ellipse cx="128" cy="148" rx="66" ry="52" fill="url(#glow)"/>
    <path d="M84 146C97 127 118 118 128 118C138 118 159 127 172 146C159 165 138 174 128 174C118 174 97 165 84 146Z" fill="#0A1520"/>
    <path d="M102 146C111 135 121 130 128 130C135 130 145 135 154 146C145 157 135 162 128 162C121 162 111 157 102 146Z" fill="#B7FFF0"/>
    <path d="M128 126V166" stroke="#102633" stroke-width="8" stroke-linecap="round"/>
    <circle cx="150" cy="132" r="6" fill="#E9FFF9" fill-opacity="0.88"/>
    <path d="M76 176L94 166L112 176L128 166L144 176L162 166L180 176" stroke="#0E6C61" stroke-width="7" stroke-linecap="round" stroke-linejoin="round"/>
  </g>
</svg>
