<svg xmlns="http://www.w3.org/2000/svg" width="20" height="20" viewBox="0 0 24 24" fill="none">
  <path d="M12 8.8A3.2 3.2 0 1 0 12 15.2A3.2 3.2 0 1 0 12 8.8Z" stroke="#9FB0C8" stroke-width="1.8"/>
  <path d="M19 12a7 7 0 0 0-.1-1.1l2-1.5-2-3.4-2.4 1a7.7 7.7 0 0 0-1.9-1.1l-.3-2.6H10l-.3 2.6A7.7 7.7 0 0 0 7.8 7l-2.4-1-2 3.4 2 1.5A7 7 0 0 0 5.3 12c0 .4 0 .7.1 1.1l-2 1.5 2 3.4 2.4-1c.6.5 1.2.8 1.9 1.1l.3 2.6h4.2l.3-2.6c.7-.3 1.3-.6 1.9-1.1l2.4 1 2-3.4-2-1.5c.1-.4.1-.7.1-1.1Z" stroke="#9FB0C8" stroke-width="1.4" stroke-linejoin="round"/>
</svg>
